<?xml version="1.0" encoding="UTF-8"?>
<svg version="1.1" xmlns="http://www.w3.org/2000/svg" width="500" height="500">
<path d="M0 0 C3.56026249 0.02147677 7.11850805 0.00003241 10.67871094 -0.02539062 C71.09980977 -0.09949663 128.83706771 24.45610936 173.01074219 65.19335938 C175.15547975 67.15088401 177.33786801 69.0306065 179.56152344 70.89648438 C197.68399921 86.73058235 211.68540071 107.81718502 223.56152344 128.52148438 C223.92745605 129.14941895 224.29338867 129.77735352 224.67041016 130.42431641 C238.10243919 153.66498827 246.70089816 180.18384968 251.56152344 206.52148438 C251.74255615 207.48425293 251.92358887 208.44702148 252.11010742 209.43896484 C254.0634471 221.69385705 253.89834081 234.00736061 253.87719727 246.38964844 C253.87404183 250.2489867 253.89754585 254.1075531 253.92285156 257.96679688 C253.95885788 271.78377496 253.38711992 284.98387027 250.56152344 298.52148438 C250.23293335 300.20177734 250.23293335 300.20177734 249.89770508 301.91601562 C239.51789003 352.56270396 212.02162493 404.36906429 171.65527344 437.78710938 C170.08034375 439.09171531 168.54478719 440.44407838 167.03027344 441.81835938 C137.44643521 468.13240496 100.2624143 485.89052732 61.99902344 495.27148438 C61.2460498 495.45815674 60.49307617 495.6448291 59.71728516 495.8371582 C57.00838034 496.46465259 54.29363272 497.0032351 51.56152344 497.52148438 C50.91317535 497.64750031 50.26482727 497.77351624 49.59683228 497.90335083 C35.57168118 500.55312763 21.74991102 501.01849308 7.50024414 500.9675293 C3.8957363 500.95903554 0.29282871 500.98787753 -3.31152344 501.01953125 C-24.07140514 501.08372657 -44.15203658 498.58690523 -64.12597656 492.83398438 C-65.33020264 492.49367188 -66.53442871 492.15335937 -67.77514648 491.80273438 C-101.09834386 482.09330662 -132.08308575 465.04262997 -158.43847656 442.52148438 C-159.18742187 441.8846875 -159.93636719 441.24789063 -160.70800781 440.59179688 C-173.63851077 429.26934625 -186.08540552 417.08441563 -196.22802734 403.17626953 C-197.4329475 401.52904307 -198.66546839 399.90577297 -199.90332031 398.28320312 C-222.9194168 367.64506994 -238.11087629 330.22480204 -244.43847656 292.52148438 C-244.62104004 291.50989258 -244.80360352 290.49830078 -244.99169922 289.45605469 C-246.82896046 277.90895778 -246.81069293 266.35960669 -246.80908203 254.69189453 C-246.81342514 251.1879705 -246.84976689 247.68534063 -246.88769531 244.18164062 C-247.15532977 190.58100907 -227.53806528 135.94780217 -193.43847656 94.52148438 C-192.28798828 93.06742188 -192.28798828 93.06742188 -191.11425781 91.58398438 C-178.39410679 75.92841389 -163.81275777 61.32757843 -147.43847656 49.52148438 C-146.33827334 48.6937093 -145.23933001 47.86425726 -144.14160156 47.03320312 C-120.3213365 29.23796232 -92.77257284 16.35808179 -64.25097656 8.27148438 C-63.15567627 7.954375 -62.06037598 7.63726562 -60.93188477 7.31054688 C-40.84542339 1.83647224 -20.77367223 -0.14834262 0 0 Z " fill="#000000" transform="translate(246.4384765625,-0.521484375)"/>
<path d="M0 0 C1.31291016 0.71349609 1.31291016 0.71349609 2.65234375 1.44140625 C3.49007324 1.88093628 3.49007324 1.88093628 4.34472656 2.3293457 C6.40195187 3.42095092 8.43378181 4.55187027 10.46484375 5.69140625 C11.24472656 6.12686768 12.02460938 6.5623291 12.828125 7.01098633 C21.38841064 11.81527945 29.85348415 16.78238007 38.32421875 21.7421875 C44.67038919 25.45656373 51.03293495 29.14204449 57.40234375 32.81640625 C58.46372559 33.4287915 59.52510742 34.04117676 60.61865234 34.67211914 C66.48394544 38.05188777 72.35705984 41.41758567 78.23828125 44.76953125 C78.86988159 45.12967316 79.50148193 45.48981506 80.15222168 45.86087036 C83.20528775 47.6015065 86.25936896 49.34031051 89.31542969 51.07568359 C90.97106934 52.01855225 90.97106934 52.01855225 92.66015625 52.98046875 C93.6258252 53.52912598 94.59149414 54.0777832 95.58642578 54.64306641 C96.59817871 55.23651855 97.60993164 55.8299707 98.65234375 56.44140625 C99.31369261 56.72210181 99.97504147 57.00279737 100.6564312 57.29199886 C103.06020016 58.45261708 104.77091638 59.53620914 106.65234375 61.44140625 C107.93947571 65.37365453 107.90909023 69.24018422 107.94140625 73.35327148 C107.98112549 74.56046341 108.02084473 75.76765533 108.06176758 77.01142883 C108.15850199 80.31878589 108.21824609 83.62211068 108.25385284 86.93039966 C108.27736989 89.00230279 108.31022077 91.07385879 108.34588623 93.14558601 C108.45524735 99.64464854 108.53257755 106.14290896 108.56350136 112.64282745 C108.59926639 120.11707143 108.73910922 127.57954411 108.97150612 135.05020756 C109.14537811 140.84349464 109.2251809 146.63350265 109.23583031 152.42936665 C109.2441657 155.88396455 109.29003639 159.32750646 109.43438721 162.77932549 C110.05604708 180.2288144 110.05604708 180.2288144 106.65234375 187.44140625 C100.83330747 193.63715179 93.2206868 197.02850181 85.47668457 200.23835945 C81.78210961 201.81208828 78.46206138 203.74154976 75.02734375 205.81640625 C72.90284356 207.02561813 70.77785332 208.2339695 68.65234375 209.44140625 C59.95680432 214.39249008 51.28755412 219.38559139 42.65234375 224.44140625 C34.23601588 229.36406983 25.8040937 234.25870222 17.34692383 239.11083984 C16.10440374 239.82421303 14.86252762 240.53870918 13.62133789 241.25439453 C11.89003999 242.25225126 10.15600739 243.24535863 8.421875 244.23828125 C6.93071167 245.09437988 6.93071167 245.09437988 5.40942383 245.96777344 C4.4995874 246.45407227 3.58975098 246.94037109 2.65234375 247.44140625 C1.41484375 248.12251465 1.41484375 248.12251465 0.15234375 248.81738281 C-3.47096078 249.72179359 -4.95085324 248.51346406 -8.1171875 246.62890625 C-9.24092773 245.9726123 -10.36466797 245.31631836 -11.52246094 244.64013672 C-12.73520288 243.90751921 -13.94776348 243.17460144 -15.16015625 242.44140625 C-16.41987801 241.69765047 -17.68063492 240.95564536 -18.94238281 240.21533203 C-21.51687519 238.70135114 -24.08527957 237.17778103 -26.64892578 235.64550781 C-30.96832223 233.06597505 -35.31838997 230.54030532 -39.67016602 228.01586914 C-43.59284945 225.73867797 -47.50667105 223.44647054 -51.42089844 221.15478516 C-56.35273688 218.26759445 -61.28723042 215.38495956 -66.22265625 212.50390625 C-67.19404541 211.93679932 -68.16543457 211.36969238 -69.16625977 210.78540039 C-78.05464069 205.60178827 -86.9663051 200.45889822 -95.88427734 195.32641602 C-96.91762207 194.73143311 -97.9509668 194.1364502 -99.015625 193.5234375 C-99.92594482 192.99983643 -100.83626465 192.47623535 -101.77416992 191.93676758 C-102.62342041 191.44329834 -103.4726709 190.9498291 -104.34765625 190.44140625 C-105.2140271 190.05701385 -106.08039795 189.67262146 -106.97302246 189.27658081 C-109.34765625 187.44140625 -109.34765625 187.44140625 -109.94892883 184.38520813 C-109.93782578 183.13056259 -109.92672272 181.87591705 -109.9152832 180.58325195 C-109.91601334 179.89031036 -109.91674347 179.19736877 -109.91749573 178.48342896 C-109.91401322 176.19388426 -109.87512652 173.90637647 -109.8359375 171.6171875 C-109.82661159 170.02964896 -109.81949443 168.44209603 -109.8144989 166.85453796 C-109.7954112 162.67679082 -109.74629631 158.49991336 -109.690979 154.32250977 C-109.63982402 150.05952724 -109.61699296 145.79640413 -109.59179688 141.53320312 C-109.53817823 133.16887179 -109.4528453 124.80524721 -109.34765625 116.44140625 C-109.01765625 116.44140625 -108.68765625 116.44140625 -108.34765625 116.44140625 C-108.34765625 138.88140625 -108.34765625 161.32140625 -108.34765625 184.44140625 C-95.44313889 177.14754861 -82.60723203 169.88656925 -69.890625 162.29296875 C-68.13685547 161.37644531 -68.13685547 161.37644531 -66.34765625 160.44140625 C-65.68765625 160.77140625 -65.02765625 161.10140625 -64.34765625 161.44140625 C-75.05218201 168.36504884 -86.02385282 174.71098937 -97.17944336 180.88134766 C-98.22366455 181.45933105 -99.26788574 182.03731445 -100.34375 182.6328125 C-101.75418579 183.40927124 -101.75418579 183.40927124 -103.19311523 184.20141602 C-105.25897742 185.26601315 -105.25897742 185.26601315 -106.34765625 186.44140625 C-105.69619629 186.81724854 -105.04473633 187.19309082 -104.37353516 187.58032227 C-103.44976074 188.11326904 -102.52598633 188.64621582 -101.57421875 189.1953125 C-100.53507324 189.79480713 -99.49592773 190.39430176 -98.42529297 191.01196289 C-96.09093983 192.35873048 -93.7566239 193.70556232 -91.42236328 195.05249023 C-85.50787136 198.46517923 -79.59277184 201.87680031 -73.67578125 205.28515625 C-63.21758775 211.31096257 -52.76952392 217.35295906 -42.34765625 223.44140625 C-39.39800607 225.16232349 -36.4481019 226.8828042 -33.49804688 228.60302734 C-31.27724022 229.89895683 -29.05717546 231.19609988 -26.83789062 232.49462891 C-23.84184447 234.24717145 -20.8427713 235.99443648 -17.84179688 237.73852539 C-16.13342729 238.73308153 -14.42800754 239.73269916 -12.72265625 240.73242188 C-11.68625 241.33376953 -10.64984375 241.93511719 -9.58203125 242.5546875 C-8.66647461 243.08876221 -7.75091797 243.62283691 -6.80761719 244.1730957 C-3.71546668 245.8159023 -3.71546668 245.8159023 -0.34765625 246.44140625 C2.42035194 245.32041841 2.42035194 245.32041841 5.32421875 243.53125 C6.45102051 242.87825928 7.57782227 242.22526855 8.73876953 241.55249023 C9.96009027 240.82818027 11.18127833 240.10364655 12.40234375 239.37890625 C13.6684493 238.63957708 14.93522256 237.90139026 16.20263672 237.16430664 C19.42080839 235.28932065 22.63080561 233.40080011 25.83898926 231.50878906 C28.52932652 229.9251937 31.22737291 228.35494943 33.92578125 226.78515625 C37.84017802 224.50758891 41.75139594 222.22472643 45.66015625 219.9375 C53.05072447 215.61841587 60.46903715 211.3476437 67.88916016 207.07958984 C73.46030223 203.87191158 79.0194672 200.64546872 84.55859375 197.3828125 C85.66589844 196.73183594 86.77320313 196.08085937 87.9140625 195.41015625 C90.03343749 194.16256277 92.15071488 192.91139741 94.265625 191.65625 C95.20792969 191.10195313 96.15023437 190.54765625 97.12109375 189.9765625 C97.95060547 189.48551025 98.78011719 188.99445801 99.63476562 188.48852539 C101.65234375 187.44140625 101.65234375 187.44140625 103.65234375 187.44140625 C103.65234375 186.78140625 103.65234375 186.12140625 103.65234375 185.44140625 C102.99363281 185.20164062 102.33492187 184.961875 101.65625 184.71484375 C97.81224607 183.08526601 94.230953 181.10315422 90.58984375 179.06640625 C89.81560059 178.63739014 89.04135742 178.20837402 88.24365234 177.76635742 C83.82388992 175.29540064 79.4720419 172.7394515 75.1640625 170.078125 C73.81550171 169.24837158 73.81550171 169.24837158 72.43969727 168.40185547 C70.68710581 167.3170327 68.94124605 166.22124581 67.20288086 165.11376953 C66.00610718 164.37296143 66.00610718 164.37296143 64.78515625 163.6171875 C64.08277832 163.17286377 63.38040039 162.72854004 62.65673828 162.27075195 C60.6733645 161.26207323 60.6733645 161.26207323 58.46826172 161.68041992 C56.4623419 162.30907263 56.4623419 162.30907263 55.46484375 164.44140625 C53.65234375 166.44140625 53.65234375 166.44140625 51.79003906 166.70825195 C50.67773926 166.75598755 50.67773926 166.75598755 49.54296875 166.8046875 C44.43354835 167.28151929 40.94176301 169.01582096 36.58984375 171.62890625 C35.84541016 172.05872803 35.10097656 172.4885498 34.33398438 172.93139648 C32.68576512 173.88621887 31.04191715 174.84861545 29.40185547 175.81738281 C26.3490768 177.62053356 23.28470822 179.40294987 20.21875 181.18359375 C15.07017974 184.1760978 9.93041519 187.1832063 4.796875 190.20141602 C3.43739706 190.98748027 2.05692975 191.73911325 0.65234375 192.44140625 C0.61475952 194.03795044 0.61475952 194.03795044 0.57641602 195.66674805 C0.48202705 199.62715054 0.381884 203.58739048 0.2800293 207.54760742 C0.2367993 209.25948272 0.1951161 210.97139782 0.1550293 212.68334961 C0.09703661 215.14839659 0.03342678 217.61324543 -0.03125 220.078125 C-0.04796249 220.83977463 -0.06467499 221.60142426 -0.08189392 222.38615417 C-0.18683539 226.17636675 -0.45158252 229.75187845 -1.34765625 233.44140625 C-1.67765625 233.44140625 -2.00765625 233.44140625 -2.34765625 233.44140625 C-2.34765625 219.91140625 -2.34765625 206.38140625 -2.34765625 192.44140625 C-3.99765625 191.78140625 -5.64765625 191.12140625 -7.34765625 190.44140625 C-9.2595581 189.40780727 -11.15296699 188.33959659 -13.03125 187.24609375 C-14.11736572 186.61590332 -15.20348145 185.98571289 -16.32250977 185.33642578 C-16.88865997 185.00596252 -17.45481018 184.67549927 -18.03811646 184.33502197 C-19.79876961 183.30846895 -21.56281256 182.28798325 -23.32788086 181.26904297 C-28.19554666 178.45608614 -33.05713863 175.63720547 -37.85546875 172.70703125 C-44.66574896 168.47648091 -44.66574896 168.47648091 -52.41015625 166.87890625 C-56.34765625 166.44140625 -56.34765625 166.44140625 -58.00390625 165.05859375 C-60.95997682 161.26496985 -61.94401104 158.33151554 -61.34765625 153.44140625 C-59.03765625 153.44140625 -56.72765625 153.44140625 -54.34765625 153.44140625 C-54.34765625 130.34140625 -54.34765625 107.24140625 -54.34765625 83.44140625 C-19.03765625 83.11140625 16.27234375 82.78140625 52.65234375 82.44140625 C52.65234375 84.09140625 52.65234375 85.74140625 52.65234375 87.44140625 C55.71480389 88.54631362 57.84238314 88.78552813 60.87158203 87.49853516 C63.53752079 85.98984527 66.12783587 84.39433131 68.71484375 82.75390625 C70.66837447 81.55712936 72.62282713 80.36185629 74.578125 79.16796875 C75.57666504 78.55211914 76.57520508 77.93626953 77.60400391 77.30175781 C82.48615359 74.32226233 87.43865823 71.46980666 92.40234375 68.62890625 C93.75017944 67.84737183 93.75017944 67.84737183 95.12524414 67.05004883 C95.95403076 66.57462646 96.78281738 66.0992041 97.63671875 65.609375 C98.36600586 65.18938232 99.09529297 64.76938965 99.84667969 64.33666992 C101.65234375 63.44140625 101.65234375 63.44140625 103.65234375 63.44140625 C101.39020901 60.96650319 99.09980372 59.41644769 96.171875 57.796875 C95.26783936 57.29236816 94.36380371 56.78786133 93.43237305 56.26806641 C92.45308838 55.72714355 91.47380371 55.1862207 90.46484375 54.62890625 C88.36248463 53.45454999 86.26094669 52.27872265 84.16015625 51.1015625 C82.53835449 50.19301514 82.53835449 50.19301514 80.88378906 49.26611328 C75.83904103 46.41748479 70.83814864 43.49554496 65.83984375 40.56640625 C56.43038858 35.05832026 47.00249123 29.58374288 37.55078125 24.1484375 C32.43340488 21.20486842 27.32136965 18.25335556 22.22991943 15.2651825 C19.84356 13.86520599 17.45420522 12.47038656 15.06463623 11.07589722 C13.37821772 10.08886586 11.69613264 9.0944423 10.01416016 8.09985352 C8.99112793 7.50358154 7.9680957 6.90730957 6.9140625 6.29296875 C6.01647217 5.76525879 5.11888184 5.23754883 4.1940918 4.69384766 C1.57662753 3.40409723 -0.44020405 2.68176189 -3.34765625 2.44140625 C-5.41863649 3.12483814 -5.41863649 3.12483814 -7.30859375 4.390625 C-8.02789062 4.82697266 -8.7471875 5.26332031 -9.48828125 5.71289062 C-10.225625 6.18017578 -10.96296875 6.64746094 -11.72265625 7.12890625 C-13.1886185 8.02894491 -14.65476239 8.92868781 -16.12109375 9.828125 C-16.8284668 10.26560059 -17.53583984 10.70307617 -18.26464844 11.15380859 C-19.2957373 11.79116943 -19.2957373 11.79116943 -20.34765625 12.44140625 C-21.3516748 13.06523193 -21.3516748 13.06523193 -22.37597656 13.70166016 C-23.99744986 14.67697928 -25.66903808 15.56809983 -27.34765625 16.44140625 C-28.00765625 16.11140625 -28.66765625 15.78140625 -29.34765625 15.44140625 C-23.17890366 11.72498563 -23.17890366 11.72498563 -20.54541016 10.15698242 C-17.28752366 8.21685405 -14.04684119 6.26287232 -10.85546875 4.21484375 C-9.82164062 3.56773438 -8.7878125 2.920625 -7.72265625 2.25390625 C-6.80226563 1.66222656 -5.881875 1.07054688 -4.93359375 0.4609375 C-2.34765625 -0.55859375 -2.34765625 -0.55859375 0 0 Z " fill="#929191" transform="translate(253.34765625,112.55859375)"/>
<path d="M0 0 C30.03 0 60.06 0 91 0 C88.10558326 2.89441674 85.610887 4.54053348 82.08984375 6.57421875 C81.23768028 7.0672625 81.23768028 7.0672625 80.36830139 7.57026672 C79.17192342 8.26084167 77.97417401 8.94904549 76.77514648 9.63500977 C74.93658182 10.68802587 73.10383725 11.75067253 71.27148438 12.81445312 C70.10710588 13.48495718 68.94240332 14.15489884 67.77734375 14.82421875 C66.71765381 15.43354248 65.65796387 16.04286621 64.56616211 16.6706543 C62 18 62 18 60 18 C60.08566397 20.912575 60.57910955 22.56798024 62.625 24.66796875 C64.38391375 26.16091772 66.16313019 27.60436262 68 29 C66.30711959 32.77158007 64.2280093 34.43414646 61 37 C60.67 37.99 60.34 38.98 60 40 C61.15628906 39.02546875 61.15628906 39.02546875 62.3359375 38.03125 C63.33882813 37.1959375 64.34171875 36.360625 65.375 35.5 C66.37273437 34.6646875 67.37046875 33.829375 68.3984375 32.96875 C71 31 71 31 73 31 C69.50640535 27.40365256 65.88901869 24.16548033 62 21 C63.35850446 16.92448662 65.1599775 16.52261228 68.8984375 14.49609375 C69.48920074 14.17214127 70.07996399 13.84818878 70.68862915 13.51441956 C72.57939399 12.47988571 74.47685277 11.45841488 76.375 10.4375 C78.26441798 9.41029733 80.15239549 8.38049562 82.03994751 7.34986877 C83.75653113 6.41436847 85.47657496 5.4852258 87.19677734 4.55639648 C90.0807434 3.00472442 90.0807434 3.00472442 93 1 C93.99 1 94.98 1 96 1 C96 19.15 96 37.3 96 56 C79.83 56 63.66 56 47 56 C45.02027027 32.24324324 45.02027027 32.24324324 50 25 C50.76040572 22.73014106 50.76040572 22.73014106 51 21 C51.66 21 52.32 21 53 21 C53.99 17.7 54.98 14.4 56 11 C55.01 11 54.02 11 53 11 C52.73646729 11.85376221 52.47293457 12.70752441 52.20141602 13.5871582 C50.96518313 17.09890368 49.46170543 20.28653066 47.77734375 23.60546875 C47.47180069 24.2113533 47.16625763 24.81723785 46.85145569 25.44148254 C45.88396818 27.35878819 44.91112608 29.27330529 43.9375 31.1875 C42.96103103 33.11275888 41.98576444 35.03860355 41.01283264 36.96565247 C40.13349895 38.70654099 39.25032072 40.44548603 38.36694336 42.18432617 C36.9347852 44.97923904 36.9347852 44.97923904 36 48 C36.99 48 37.98 48 39 48 C39.268125 47.113125 39.53625 46.22625 39.8125 45.3125 C40.92040153 42.22203785 42.16534718 39.71209548 44 37 C44.33 37 44.66 37 45 37 C45 43.27 45 49.54 45 56 C28.83 56 12.66 56 -4 56 C-4 37.85 -4 19.7 -4 1 C-0.78597809 1.80350548 1.11981097 2.47288688 3.90625 4.0390625 C4.64504395 4.45172363 5.38383789 4.86438477 6.14501953 5.28955078 C6.92216309 5.73024902 7.69930664 6.17094727 8.5 6.625 C9.29647949 7.07214355 10.09295898 7.51928711 10.91357422 7.97998047 C17.31594122 11.5844576 23.6779343 15.25634541 30 19 C26.92118304 22.87051275 23.99926986 26.02911382 20 29 C21.31225809 32.93677426 23.1961394 33.8271782 26.5625 36.1875 C27.57441406 36.90292969 28.58632812 37.61835938 29.62890625 38.35546875 C30.41136719 38.89816406 31.19382813 39.44085938 32 40 C30.70054085 37.02890651 29.48542224 35.34802642 26.875 33.4375 C25.92625 32.633125 24.9775 31.82875 24 31 C24 28 24 28 25.53125 26.39453125 C26.1809375 25.87246094 26.830625 25.35039062 27.5 24.8125 C28.1496875 24.28269531 28.799375 23.75289062 29.46875 23.20703125 C29.9740625 22.80871094 30.479375 22.41039062 31 22 C30.80987238 20.07479979 30.80987238 20.07479979 30 18 C28.19404224 16.5391937 28.19404224 16.5391937 25.87890625 15.4140625 C24.60515137 14.7341626 24.60515137 14.7341626 23.30566406 14.04052734 C22.40041992 13.57340332 21.49517578 13.1062793 20.5625 12.625 C18.73500594 11.65230155 16.90817543 10.67835535 15.08203125 9.703125 C13.76452881 9.00606445 13.76452881 9.00606445 12.42041016 8.29492188 C8.19665854 6.0352105 3.94603489 3.72068721 0 1 C0 0.67 0 0.34 0 0 Z " fill="#040404" transform="translate(206,209)"/>
<path d="M0 0 C0 39.93 0 79.86 0 121 C-3.87453805 119.45018478 -7.11138096 117.88436602 -10.68359375 115.8046875 C-11.770354 115.1748999 -12.85711426 114.5451123 -13.97680664 113.89624023 C-15.1306353 113.22294607 -16.28419542 112.5491915 -17.4375 111.875 C-26.53675715 106.52187119 -26.53675715 106.52187119 -35.7890625 101.44140625 C-36.44463135 101.09158691 -37.1002002 100.74176758 -37.77563477 100.38134766 C-39.42730031 99.5089144 -41.09016568 98.65777345 -42.75390625 97.80859375 C-45.77729256 95.37411052 -45.55833675 93.79873136 -46 90 C-46.59442379 81.7962874 -46.7126462 73.55383332 -46.85931396 65.33098125 C-46.92642054 61.63973169 -47.02228566 57.95418027 -47.18652344 54.26586914 C-48.21457493 30.56726428 -48.21457493 30.56726428 -44.67849731 24.87130737 C-41.31485255 21.60351922 -37.41704514 20.08134162 -33.00079346 18.68966675 C-29.90631986 17.62301215 -27.26790315 15.91906069 -24.49609375 14.19921875 C-21.44099239 12.42636083 -18.38410987 10.65663226 -15.32617188 8.88867188 C-9.25111851 5.37354843 -9.25111851 5.37354843 -3.34765625 1.58203125 C-1 0 -1 0 0 0 Z " fill="#000000" transform="translate(358,176)"/>
<path d="M0 0 C0.99 0.495 0.99 0.495 2 1 C-9.85975857 8.51438144 -22.07329222 15.43031448 -34.25195312 22.40942383 C-35.15880859 22.93431396 -36.06566406 23.4592041 -37 24 C-37.86807785 24.39014282 -38.7361557 24.78028564 -39.63053894 25.18225098 C-42.2986795 26.82254945 -42.2986795 26.82254945 -42.63923645 29.98027039 C-42.64589828 31.19938614 -42.65256012 32.41850189 -42.65942383 33.67456055 C-42.66990753 34.347995 -42.68039124 35.02142944 -42.69119263 35.715271 C-42.71997748 37.93955365 -42.71364817 40.16228298 -42.70703125 42.38671875 C-42.72014442 43.92944798 -42.73544749 45.47216003 -42.75285339 47.0148468 C-42.79276187 51.07391383 -42.8028975 55.13253237 -42.80688477 59.19177246 C-42.81620535 63.33436744 -42.85361199 67.47669767 -42.88867188 71.61914062 C-42.95330705 79.74609852 -42.98649832 87.8727971 -43 96 C-43.66 96 -44.32 96 -45 96 C-45.33 95.01 -45.66 94.02 -46 93 C-51.71742578 92.02978951 -57.27328 91.83094691 -63.06616211 91.79467773 C-64.05229492 91.78477814 -65.03842773 91.77487854 -66.05444336 91.76467896 C-69.29538621 91.73323583 -72.53634369 91.70837482 -75.77734375 91.68359375 C-78.03178781 91.66300937 -80.28622813 91.64201251 -82.54066467 91.62062073 C-88.46055063 91.56555336 -94.38047054 91.5160767 -100.30041504 91.46777344 C-107.41075586 91.4085902 -114.52103495 91.34244695 -121.63132477 91.27747345 C-132.42084532 91.17965701 -143.21040635 91.09066885 -154 91 C-154 71.86 -154 52.72 -154 33 C-153.01 33.33 -152.02 33.66 -151 34 C-151.66 34 -152.32 34 -153 34 C-153 52.15 -153 70.3 -153 89 C-136.83 89 -120.66 89 -104 89 C-104.495 80.09 -104.495 80.09 -105 71 C-106.65 74.3 -108.3 77.6 -110 81 C-110.99 81 -111.98 81 -113 81 C-112.37629252 76.39386217 -110.49373693 72.60059262 -108.40234375 68.51171875 C-108.04862198 67.80852005 -107.69490021 67.10532135 -107.33045959 66.3808136 C-106.20509922 64.14681651 -105.07144457 61.91715008 -103.9375 59.6875 C-103.1706718 58.16889848 -102.40438962 56.65002112 -101.63867188 55.13085938 C-99.76542351 51.41734829 -97.88472764 47.70769727 -96 44 C-95.01 44 -94.02 44 -93 44 C-93.50712033 47.71888239 -94.11608215 50.73454239 -96 54 C-96.66 54 -97.32 54 -98 54 C-98.103125 54.70125 -98.20625 55.4025 -98.3125 56.125 C-99 59 -99 59 -102 65 C-102 72.92 -102 80.84 -102 89 C-85.83 89 -69.66 89 -53 89 C-53 70.85 -53 52.7 -53 34 C-53.66 33.67 -54.32 33.34 -55 33 C-54.01 32.67 -53.02 32.34 -52 32 C-52 31.34 -52 30.68 -52 30 C-85.66 30 -119.32 30 -154 30 C-154 27.36 -154 24.72 -154 22 C-140.91760414 21.95367539 -127.83522776 21.9181301 -114.75276661 21.89637566 C-108.67816586 21.88593504 -102.6036212 21.87177064 -96.52905273 21.84912109 C-90.66761918 21.82740281 -84.80623959 21.81543347 -78.94476891 21.81024551 C-76.70765012 21.80654795 -74.47053432 21.79932763 -72.23343849 21.78853989 C-69.10193097 21.77403862 -65.97064698 21.77202151 -62.83911133 21.77294922 C-61.44943901 21.76216339 -61.44943901 21.76216339 -60.0316925 21.75115967 C-55.54663045 21.76555312 -52.08540678 21.93241332 -48 24 C-45.04906039 24.89936384 -43.63939592 25.25230929 -40.74609375 24.1105957 C-39.98425781 23.63710693 -39.22242188 23.16361816 -38.4375 22.67578125 C-37.56770508 22.14678223 -36.69791016 21.6177832 -35.80175781 21.07275391 C-34.87717773 20.49187012 -33.95259766 19.91098633 -33 19.3125 C-31.0372348 18.11721362 -29.0736711 16.92323763 -27.109375 15.73046875 C-26.10455078 15.11478027 -25.09972656 14.4990918 -24.06445312 13.86474609 C-19.16527921 10.88355662 -14.21574002 7.99354595 -9.25 5.125 C-8.35152344 4.59559814 -7.45304688 4.06619629 -6.52734375 3.52075195 C-5.69847656 3.04210693 -4.86960937 2.56346191 -4.015625 2.0703125 C-3.28633789 1.64508301 -2.55705078 1.21985352 -1.80566406 0.78173828 C-1.20979492 0.52376465 -0.61392578 0.26579102 0 0 Z " fill="#EEEAEA" transform="translate(355,176)"/>
<path d="M0 0 C0.495 2.97 0.495 2.97 1 6 C0.06689751 5.51486435 0.06689751 5.51486435 -0.88505554 5.01992798 C-5.22819795 3.59785047 -9.295818 3.69174588 -13.83911133 3.68115234 C-14.82495209 3.67110672 -15.81079285 3.6610611 -16.82650757 3.65071106 C-20.07834298 3.61987127 -23.33009602 3.60284152 -26.58203125 3.5859375 C-28.83933725 3.56722652 -31.09663625 3.54765316 -33.35392761 3.5272522 C-39.29027176 3.47591778 -45.22663858 3.43629892 -51.16308594 3.39910889 C-57.22271338 3.35907756 -63.28224638 3.30798121 -69.34179688 3.2578125 C-81.22779824 3.16103763 -93.11385293 3.07663772 -105 3 C-105 5.64 -105 8.28 -105 11 C-71.34 11 -37.68 11 -3 11 C-3 11.66 -3 12.32 -3 13 C-10.17622016 18.37972905 -18.37038696 22.57014564 -26.1875 26.9375 C-27.23486328 27.52595703 -28.28222656 28.11441406 -29.36132812 28.72070312 C-31.90601342 30.14990993 -34.45223359 31.57629541 -37 33 C-37 33.66 -37 34.32 -37 35 C-35.37946188 36.38903267 -33.70294787 37.71332828 -32 39 C-30.29705213 40.28667172 -28.62053812 41.61096733 -27 43 C-27 43.66 -27 44.32 -27 45 C-29.08203125 46.91015625 -29.08203125 46.91015625 -31.8125 49.0625 C-32.70582031 49.77535156 -33.59914063 50.48820312 -34.51953125 51.22265625 C-37 53 -37 53 -40 54 C-39.82374165 51.62051228 -39.30280227 50.29774151 -37.59765625 48.62109375 C-36.09350908 47.37884514 -34.54870149 46.18623944 -33 45 C-34.14717356 42.07992185 -35.042901 40.96833498 -37.625 39.0625 C-38.800625 38.0415625 -38.800625 38.0415625 -40 37 C-40.1484375 34.37109375 -40.1484375 34.37109375 -40 32 C-39.51756836 31.73372803 -39.03513672 31.46745605 -38.53808594 31.19311523 C-36.274583 29.94269938 -34.01229459 28.69010061 -31.75 27.4375 C-30.61304688 26.81004883 -30.61304688 26.81004883 -29.453125 26.16992188 C-22.90633203 22.54190744 -16.47040608 18.77440355 -10 15 C-39.37 15 -68.74 15 -99 15 C-92.4 18.63 -85.8 22.26 -79 26 C-69.28032345 31.39982031 -69.28032345 31.39982031 -68.0859375 33.95703125 C-68 36 -68 36 -69.14453125 37.703125 C-69.69496094 38.21359375 -70.24539062 38.7240625 -70.8125 39.25 C-71.62654297 40.03117187 -71.62654297 40.03117187 -72.45703125 40.828125 C-74 42 -74 42 -76 42 C-74.38000794 45.06945864 -73.06205345 46.95093448 -70.3125 49.125 C-69.549375 49.74375 -68.78625 50.3625 -68 51 C-68 51.99 -68 52.98 -68 54 C-71.2826932 52.50923566 -73.93077441 50.61379679 -76.75 48.375 C-77.54921875 47.74335938 -78.3484375 47.11171875 -79.171875 46.4609375 C-79.77515625 45.97882813 -80.3784375 45.49671875 -81 45 C-79.55218207 41.55571735 -77.72305391 39.63869038 -74.875 37.25 C-74.15054688 36.63640625 -73.42609375 36.0228125 -72.6796875 35.390625 C-71.84824219 34.70226562 -71.84824219 34.70226562 -71 34 C-77.35072698 29.98941057 -83.7818023 26.13029316 -90.25 22.3125 C-91.2296875 21.73177734 -92.209375 21.15105469 -93.21875 20.55273438 C-94.63414062 19.71645508 -94.63414062 19.71645508 -96.078125 18.86328125 C-96.92793945 18.36094971 -97.77775391 17.85861816 -98.65332031 17.34106445 C-100.72907076 16.15482879 -102.86160902 15.06919549 -105 14 C-105 33.14 -105 52.28 -105 72 C-71.67 72 -38.34 72 -4 72 C-4 72.33 -4 72.66 -4 73 C-57.46 73.495 -57.46 73.495 -112 74 C-112 73.34 -112 72.68 -112 72 C-110.02 71.505 -110.02 71.505 -108 71 C-107.67 47.9 -107.34 24.8 -107 1 C-82.90351866 0.75043408 -82.90351866 0.75043408 -72.60351562 0.64453125 C-65.58536506 0.57236926 -58.56721561 0.50010811 -51.54907227 0.42724609 C-45.88862959 0.368486 -40.2281824 0.31017925 -34.56773186 0.25218201 C-32.41207654 0.23001631 -30.25642287 0.20768943 -28.10077095 0.18519592 C-25.07312565 0.15363145 -22.0454749 0.12264887 -19.01782227 0.09179688 C-17.69179993 0.07777077 -17.69179993 0.07777077 -16.33898926 0.0634613 C-10.89235323 0.00870494 -5.44691588 -0.00806699 0 0 Z " fill="#DEDADA" transform="translate(306,195)"/>
<path d="M0 0 C13.15149024 -0.0231209 26.30297569 -0.04091379 39.45448208 -0.05181217 C45.56056369 -0.05704156 51.66663144 -0.0641402 57.77270508 -0.07543945 C63.66005147 -0.08626637 69.54738449 -0.09227642 75.43474007 -0.09487724 C77.68632277 -0.09673185 79.93790469 -0.10035313 82.18948174 -0.10573006 C85.33133427 -0.11293789 88.47313083 -0.11399105 91.61499023 -0.11352539 C93.02623421 -0.1189183 93.02623421 -0.1189183 94.46598816 -0.12442017 C100.88594784 -0.11405216 100.88594784 -0.11405216 102 1 C102 3.31 102 5.62 102 8 C68.34 8 34.68 8 0 8 C0 5.36 0 2.72 0 0 Z " fill="#050505" transform="translate(201,198)"/>
<path d="M0 0 C13.53 0 27.06 0 41 0 C41 7.92 41 15.84 41 24 C37.82506662 22.73002665 35.10075858 21.59844601 32.171875 19.96875 C31.46216553 19.57494141 30.75245605 19.18113281 30.02124023 18.77539062 C29.27173096 18.35451172 28.52222168 17.93363281 27.75 17.5 C26.97019775 17.06365234 26.19039551 16.62730469 25.38696289 16.17773438 C19.71474957 12.99085435 14.06341739 9.7679074 8.4375 6.5 C7.70563477 6.07912109 6.97376953 5.65824219 6.21972656 5.22460938 C1.11696224 2.23392448 1.11696224 2.23392448 0 0 Z " fill="#040404" transform="translate(210,279)"/>
<path d="M0 0 C13.53 0 27.06 0 41 0 C38.33091633 2.66908367 36.37304582 4.06516289 33.1328125 5.85546875 C32.17012451 6.39212158 31.20743652 6.92877441 30.21557617 7.48168945 C28.68574097 8.32606567 28.68574097 8.32606567 27.125 9.1875 C19.36452483 13.51096024 11.71039142 17.91474262 4.23046875 22.70703125 C2 24 2 24 0 24 C0 16.08 0 8.16 0 0 Z " fill="#030303" transform="translate(253,279)"/>
<path d="M0 0 C0.495 2.97 0.495 2.97 1 6 C0.06689751 5.51486435 0.06689751 5.51486435 -0.88505554 5.01992798 C-5.22819795 3.59785047 -9.295818 3.69174588 -13.83911133 3.68115234 C-14.82495209 3.67110672 -15.81079285 3.6610611 -16.82650757 3.65071106 C-20.07834298 3.61987127 -23.33009602 3.60284152 -26.58203125 3.5859375 C-28.83933725 3.56722652 -31.09663625 3.54765316 -33.35392761 3.5272522 C-39.29027176 3.47591778 -45.22663858 3.43629892 -51.16308594 3.39910889 C-57.22271338 3.35907756 -63.28224638 3.30798121 -69.34179688 3.2578125 C-81.22779824 3.16103763 -93.11385293 3.07663772 -105 3 C-105 6.3 -105 9.6 -105 13 C-104.34 13.33 -103.68 13.66 -103 14 C-103.66 14 -104.32 14 -105 14 C-105 33.14 -105 52.28 -105 72 C-71.67 72 -38.34 72 -4 72 C-4 72.33 -4 72.66 -4 73 C-57.46 73.495 -57.46 73.495 -112 74 C-112 73.34 -112 72.68 -112 72 C-110.02 71.505 -110.02 71.505 -108 71 C-107.67 47.9 -107.34 24.8 -107 1 C-82.90351866 0.75043408 -82.90351866 0.75043408 -72.60351562 0.64453125 C-65.58536506 0.57236926 -58.56721561 0.50010811 -51.54907227 0.42724609 C-45.88862959 0.368486 -40.2281824 0.31017925 -34.56773186 0.25218201 C-32.41207654 0.23001631 -30.25642287 0.20768943 -28.10077095 0.18519592 C-25.07312565 0.15363145 -22.0454749 0.12264887 -19.01782227 0.09179688 C-17.69179993 0.07777077 -17.69179993 0.07777077 -16.33898926 0.0634613 C-10.89235323 0.00870494 -5.44691588 -0.00806699 0 0 Z " fill="#F9F4F4" transform="translate(306,195)"/>
<path d="M0 0 C3.02965938 1.44191469 5.9213637 3.02894013 8.82958984 4.703125 C9.41080093 5.03645844 9.99201202 5.36979187 10.59083557 5.71322632 C12.44432511 6.77712755 14.29520741 7.8454711 16.14599609 8.9140625 C17.35350434 9.60837569 18.56118539 10.30238845 19.76904297 10.99609375 C22.18312731 12.3829938 24.59626769 13.77151595 27.00878906 15.16113281 C32.89995873 18.55235527 38.804727 21.91983963 44.70849609 25.2890625 C44.37849609 25.9490625 44.04849609 26.6090625 43.70849609 27.2890625 C11.36849609 27.2890625 -20.97150391 27.2890625 -54.29150391 27.2890625 C-54.29150391 50.3890625 -54.29150391 73.4890625 -54.29150391 97.2890625 C-54.62150391 97.2890625 -54.95150391 97.2890625 -55.29150391 97.2890625 C-55.29150391 77.4890625 -55.29150391 57.6890625 -55.29150391 37.2890625 C-57.27150391 36.6290625 -59.25150391 35.9690625 -61.29150391 35.2890625 C-63.39144417 34.16978183 -65.46085127 32.99200744 -67.50244141 31.76953125 C-68.07427155 31.42908279 -68.64610168 31.08863434 -69.23526001 30.73786926 C-71.04896033 29.65615583 -72.85770009 28.56643935 -74.66650391 27.4765625 C-75.8719267 26.75664822 -77.0776536 26.03724288 -78.28369141 25.31835938 C-84.3285337 21.70842656 -90.33842353 18.048514 -96.29150391 14.2890625 C-95.63150391 13.9590625 -94.97150391 13.6290625 -94.29150391 13.2890625 C-92.15942383 14.24194336 -92.15942383 14.24194336 -89.52197266 15.75390625 C-88.55614258 16.30336914 -87.5903125 16.85283203 -86.59521484 17.41894531 C-85.56686523 18.01545898 -84.53851563 18.61197266 -83.47900391 19.2265625 C-82.43905273 19.82178711 -81.39910156 20.41701172 -80.32763672 21.03027344 C-73.67422565 24.85562196 -67.09433577 28.7781695 -60.61962891 32.8984375 C-58.26780789 34.41640607 -58.26780789 34.41640607 -55.29150391 35.2890625 C-55.29150391 32.3190625 -55.29150391 29.3490625 -55.29150391 26.2890625 C-53.92380859 26.11503906 -52.55611328 25.94101563 -51.14697266 25.76171875 C-43.87375003 24.299398 -37.89065781 20.47231874 -31.60400391 16.7265625 C-30.3573428 16.0000626 -29.1098597 15.27497147 -27.86157227 14.55126953 C-22.62471588 11.50377306 -17.42547714 8.4040122 -12.30712891 5.16015625 C-11.27591919 4.51252319 -11.27591919 4.51252319 -10.22387695 3.85180664 C-8.49561261 2.75401241 -6.78523739 1.62819045 -5.07666016 0.5 C-2.29150391 -0.7109375 -2.29150391 -0.7109375 0 0 Z M-6.85009766 3.74609375 C-7.78523193 4.27686523 -8.72036621 4.80763672 -9.68383789 5.35449219 C-10.68874268 5.93102539 -11.69364746 6.50755859 -12.72900391 7.1015625 C-13.75131104 7.68454102 -14.77361816 8.26751953 -15.8269043 8.86816406 C-17.94133901 10.07547664 -20.05452591 11.28497701 -22.16650391 12.49658203 C-25.12187866 14.19176652 -28.08131168 15.87965326 -31.04150391 17.56640625 C-32.77100321 18.55671097 -34.50018696 19.54756704 -36.22900391 20.5390625 C-37.4528479 21.23672729 -37.4528479 21.23672729 -38.70141602 21.94848633 C-40.58167254 23.03324183 -42.43952847 24.15669946 -44.29150391 25.2890625 C-44.29150391 25.6190625 -44.29150391 25.9490625 -44.29150391 26.2890625 C-16.24150391 26.2890625 11.80849609 26.2890625 40.70849609 26.2890625 C37.89119706 23.47176346 35.57772775 21.91399759 32.14990234 19.9609375 C31.04066406 19.32542969 29.93142578 18.68992188 28.78857422 18.03515625 C27.61614456 17.36962185 26.44361816 16.70425784 25.27099609 16.0390625 C23.00130496 14.74246734 20.73177296 13.44559356 18.46240234 12.1484375 C17.34623535 11.51357422 16.23006836 10.87871094 15.08007812 10.22460938 C12.79441109 8.91246106 10.51994309 7.59062482 8.25488281 6.24414062 C7.17609863 5.60412109 6.09731445 4.96410156 4.98583984 4.3046875 C4.01767334 3.72493164 3.04950684 3.14517578 2.05200195 2.54785156 C-1.80897749 0.47396782 -3.22439194 1.67822345 -6.85009766 3.74609375 Z " fill="#7A7979" transform="translate(253.29150390625,168.7109375)"/>
<path d="M0 0 C0.99 0.33 1.98 0.66 3 1 C2.34 1 1.68 1 1 1 C1 19.15 1 37.3 1 56 C17.17 56 33.34 56 50 56 C49.505 47.09 49.505 47.09 49 38 C46.525 42.95 46.525 42.95 44 48 C43.01 48 42.02 48 41 48 C41.62370748 43.39386217 43.50626307 39.60059262 45.59765625 35.51171875 C45.95137802 34.80852005 46.30509979 34.10532135 46.66954041 33.3808136 C47.79490078 31.14681651 48.92855543 28.91715008 50.0625 26.6875 C50.8293282 25.16889848 51.59561038 23.65002112 52.36132812 22.13085938 C54.23457649 18.41734829 56.11527236 14.70769727 58 11 C58.99 11 59.98 11 61 11 C60.49287967 14.71888239 59.88391785 17.73454239 58 21 C57.34 21 56.68 21 56 21 C55.896875 21.70125 55.79375 22.4025 55.6875 23.125 C55 26 55 26 52 32 C52 39.92 52 47.84 52 56 C68.17 56 84.34 56 101 56 C101 37.85 101 19.7 101 1 C100.01 0.505 100.01 0.505 99 0 C99.99 0 100.98 0 102 0 C102 18.81 102 37.62 102 57 C68.34 57 34.68 57 0 57 C0 38.19 0 19.38 0 0 Z " fill="#4A4949" transform="translate(201,209)"/>
<path d="M0 0 C1.21879852 0.00607269 1.21879852 0.00607269 2.46221924 0.01226807 C3.31761292 0.00876343 4.17300659 0.00525879 5.05432129 0.00164795 C7.89088988 -0.00717764 10.72721047 -0.00131732 13.56378174 0.00543213 C15.52911426 0.00408572 17.49444646 0.00214538 19.45977783 -0.00036621 C23.58236863 -0.0033186 27.70487286 0.00098385 31.82745361 0.01031494 C37.12064503 0.02170953 42.41363365 0.01515067 47.70681763 0.00317001 C51.76618995 -0.0040455 55.82551394 -0.00176208 59.8848877 0.0034256 C61.83699568 0.00476295 63.78910802 0.0031114 65.74121094 -0.00153351 C68.46604089 -0.00659367 71.1905391 0.00110425 73.91534424 0.01226807 C74.72787659 0.0082196 75.54040894 0.00417114 76.37756348 0 C81.96025361 0.042529 81.96025361 0.042529 84.18878174 2.27105713 C82.65737549 3.11023682 82.65737549 3.11023682 81.09503174 3.96636963 C68.71860435 10.78063392 56.51221631 17.87061175 44.33331299 25.03106689 C42.97383505 25.81713115 41.59336774 26.56876413 40.18878174 27.27105713 C40.15119751 28.86760132 40.15119751 28.86760132 40.112854 30.49639893 C40.01846504 34.45680142 39.91832199 38.41704136 39.81646729 42.3772583 C39.77323729 44.0891336 39.73155409 45.8010487 39.69146729 47.51300049 C39.6334746 49.97804747 39.56986477 52.44289631 39.50518799 54.90777588 C39.48847549 55.66942551 39.471763 56.43107513 39.45454407 57.21580505 C39.34960259 61.00601762 39.08485547 64.58152933 38.18878174 68.27105713 C37.85878174 68.27105713 37.52878174 68.27105713 37.18878174 68.27105713 C37.18878174 54.74105713 37.18878174 41.21105713 37.18878174 27.27105713 C34.71378174 26.28105713 34.71378174 26.28105713 32.18878174 25.27105713 C30.27687989 24.23745815 28.383471 23.16924747 26.50518799 22.07574463 C25.41834717 21.44547363 24.33150635 20.81520264 23.21173096 20.16583252 C22.05822401 19.49261496 20.90474133 18.81935582 19.75128174 18.14605713 C18.57717727 17.46397018 17.40286028 16.78224891 16.22833252 16.10089111 C13.92589851 14.7650495 11.6242466 13.4278965 9.32305908 12.08990479 C5.41290948 9.8208119 1.4917757 7.57158162 -2.43621826 5.33355713 C-3.50098389 4.72640869 -4.56574951 4.11926025 -5.66278076 3.49371338 C-6.37176514 3.09023682 -7.08074951 2.68676025 -7.81121826 2.27105713 C-5.23556549 -0.30459564 -3.51064754 0.02674415 0 0 Z M-3.81121826 1.27105713 C-0.17063359 4.94001223 -0.17063359 4.94001223 3.91925049 7.49761963 C4.63210205 7.88514404 5.34495361 8.27266846 6.07940674 8.67193604 C6.83737549 9.075896 7.59534424 9.47985596 8.37628174 9.89605713 C15.64841457 13.84109963 22.80271414 17.93905843 29.88092041 22.22271729 C33.29461099 24.48219434 33.29461099 24.48219434 37.18878174 25.27105713 C37.18878174 17.35105713 37.18878174 9.43105713 37.18878174 1.27105713 C23.65878174 1.27105713 10.12878174 1.27105713 -3.81121826 1.27105713 Z M39.18878174 1.27105713 C39.18878174 9.19105713 39.18878174 17.11105713 39.18878174 25.27105713 C43.10511443 23.70452405 46.39557252 22.10386112 50.01300049 20.00543213 C51.12481689 19.36218994 52.2366333 18.71894775 53.38214111 18.05621338 C54.54686164 17.37783995 55.71157514 16.69945447 56.87628174 16.02105713 C58.01001221 15.36492432 59.14374268 14.7087915 60.31182861 14.03277588 C63.609273 12.1208283 66.90041267 10.19856516 70.18878174 8.27105713 C71.19892334 7.68131104 72.20906494 7.09156494 73.24981689 6.48394775 C74.16424561 5.9444751 75.07867432 5.40500244 76.02081299 4.84918213 C77.23281372 4.13616943 77.23281372 4.13616943 78.46929932 3.40875244 C79.32044312 2.84559326 79.32044312 2.84559326 80.18878174 2.27105713 C80.18878174 1.94105713 80.18878174 1.61105713 80.18878174 1.27105713 C66.65878174 1.27105713 53.12878174 1.27105713 39.18878174 1.27105713 Z " fill="#9B9B9B" transform="translate(213.81121826171875,277.72894287109375)"/>
<path d="M0 0 C2.60847629 1.49745861 4.87028902 2.87028902 7 5 C7.59625371 10.55367743 7.97022496 15.37252587 5.0625 20.25 C0.95534858 22.59694367 -2.37250008 22.95144858 -7 22 C-10.03215675 19.80168636 -10.81654398 18.55036806 -12 15 C-12.60226825 9.92373901 -12.80808799 6.22437575 -9.9375 1.875 C-6.21256533 -0.50261787 -4.35125915 -0.68704092 0 0 Z " fill="#E2E2E2" transform="translate(335,374)"/>
<path d="M0 0 C1.65 0 3.3 0 5 0 C5.66 2.97 6.32 5.94 7 9 C8.64350079 5.71299843 9.41321669 3.52069985 10 0 C11.65 0 13.3 0 15 0 C16.32 4.62 17.64 9.24 19 14 C19.66 9.38 20.32 4.76 21 0 C22.32 0 23.64 0 25 0 C25.46530864 7.78961124 24.15721701 14.52678392 22 22 C19.69 22 17.38 22 15 22 C14.34 17.71 13.68 13.42 13 9 C12.690625 10.959375 12.38125 12.91875 12.0625 14.9375 C11.125 20.875 11.125 20.875 10 22 C7.66702567 22.04092937 5.33294775 22.04241723 3 22 C2.49465273 19.27172635 1.99556155 16.54255306 1.5 13.8125 C1.35691406 13.04357422 1.21382812 12.27464844 1.06640625 11.48242188 C0.36761285 7.60578227 -0.19039017 3.958529 0 0 Z " fill="#DDDDDD" transform="translate(194,374)"/>
<path d="M0 0 C5.94 0 11.88 0 18 0 C18 1.65 18 3.3 18 5 C15.69 5 13.38 5 11 5 C11 10.61 11 16.22 11 22 C9.35 22 7.7 22 6 22 C6 16.39 6 10.78 6 5 C-1.26213521 4.57836298 -1.26213521 4.57836298 -5 6 C-6.2684375 5.9690625 -6.2684375 5.9690625 -7.5625 5.9375 C-10.18389309 5.72472678 -10.18389309 5.72472678 -12 8 C-12.34490322 12.05261287 -12.30163882 13.54754176 -10 17 C-8.02252878 17.36297936 -8.02252878 17.36297936 -5.875 17.1875 C-4.59625 17.125625 -3.3175 17.06375 -2 17 C-2 18.32 -2 19.64 -2 21 C-5.21459986 22.60729993 -8.52388103 22.61930855 -12 22 C-14.9375 19.5625 -14.9375 19.5625 -17 17 C-17.33 16.67 -17.66 16.34 -18 16 C-18.58169863 11.38455511 -18.6241677 7.99866833 -16.125 4 C-12.75113366 0.82459638 -10.57497455 0.848273 -5.9765625 0.8984375 C-3.87807887 1.00626472 -1.99530388 1.33489871 0 2 C0 1.34 0 0.68 0 0 Z " fill="#CCCCCC" transform="translate(293,407)"/>
<path d="M0 0 C4.36462982 2.30135027 4.36462982 2.30135027 6 5 C7.03056312 10.24721835 6.89417939 14.50970102 4.125 19.125 C0.87432439 21.99324319 -1.57908117 22.48224974 -5.95703125 22.39453125 C-8.84359829 21.83708714 -10.48530281 20.35953395 -12.15234375 17.98046875 C-13.83450607 14.0502554 -13.76883402 10.15585956 -13 6 C-9.50942783 0.29873212 -6.58568648 -0.65856865 0 0 Z " fill="#E7E7E7" transform="translate(149,374)"/>
<path d="M0 0 C3.0625 1.3125 3.0625 1.3125 5 4 C5.79413992 9.01156258 5.65857919 13.4319543 3.6875 18.125 C1.08244211 21.01950877 -1.09995297 21.00951933 -4.9375 21.375 C-8.41561131 21.34942565 -8.78366755 21.21078546 -11.4375 18.625 C-14.2118493 13.96409317 -14.7921131 10.40500703 -14 5 C-10.44686959 -0.61623839 -6.16062515 -1.13631784 0 0 Z " fill="#EBEBEB" transform="translate(233,408)"/>
<path d="M0 0 C18.48 0 36.96 0 56 0 C56 1.98 56 3.96 56 6 C48.98922119 6.10157378 41.97863275 6.17153861 34.96728516 6.21972656 C32.58309843 6.23981893 30.19896085 6.26709781 27.81494141 6.30175781 C24.38431662 6.35037859 20.95434445 6.37299312 17.5234375 6.390625 C16.46071625 6.41127014 15.397995 6.43191528 14.30307007 6.45318604 C8.27078525 6.45500747 4.5260535 6.17028961 0 2 C0 1.34 0 0.68 0 0 Z " fill="#020202" transform="translate(195,269)"/>
<path d="M0 0 C18.48 0 36.96 0 56 0 C55 3 55 3 53.15161133 4.66918945 C48.34457258 6.69902664 43.73724463 6.36783049 38.57421875 6.29296875 C37.47149124 6.28872391 36.36876373 6.28447906 35.23262024 6.28010559 C31.71732977 6.26333905 28.20261664 6.22568951 24.6875 6.1875 C22.30144058 6.17245059 19.91537216 6.15876264 17.52929688 6.14648438 C11.68600158 6.11344212 5.84304204 6.06326236 0 6 C0 4.02 0 2.04 0 0 Z " fill="#020202" transform="translate(253,269)"/>
<path d="M0 0 C0 20.13 0 40.26 0 61 C-1.65 61 -3.3 61 -5 61 C-5.06943717 53.3419668 -5.12277913 45.68396613 -5.15543652 38.02569008 C-5.17110864 34.46981329 -5.19237444 30.91415148 -5.22631836 27.35839844 C-5.26507759 23.27276518 -5.27969633 19.18735859 -5.29296875 15.1015625 C-5.30845261 13.82133209 -5.32393646 12.54110168 -5.33988953 11.22207642 C-5.34011612 10.04100311 -5.34034271 8.85992981 -5.34057617 7.64306641 C-5.34723801 6.59937897 -5.35389984 5.55569153 -5.36076355 4.4803772 C-5.24171158 3.66185272 -5.12265961 2.84332825 -5 2 C-2 0 -2 0 0 0 Z " fill="#1C1B1B" transform="translate(310,205)"/>
<path d="M0 0 C11 0 11 0 14.1875 1 C16 3 16 3 16.4375 6.9375 C16.29508876 9.53887873 16.07067304 10.86981283 14.8125 13.1875 C14.544375 13.785625 14.27625 14.38375 14 15 C15.31865712 17.64225405 15.31865712 17.64225405 17 20 C17 20.66 17 21.32 17 22 C15.35 22 13.7 22 12 22 C10.58398438 19.31445312 10.58398438 19.31445312 9.16796875 16.62890625 C8.00980201 14.67732013 8.00980201 14.67732013 5 14 C5 16.64 5 19.28 5 22 C3.35 22 1.7 22 0 22 C0 14.74 0 7.48 0 0 Z " fill="#E7E7E7" transform="translate(199,407)"/>
<path d="M0 0 C11 0 11 0 14.1875 1.0625 C16 3 16 3 16.4375 6.5625 C16 10 16 10 14 12 C14.38766305 15.58588324 15.58566252 18.69987921 17 22 C15.35 22 13.7 22 12 22 C10.58398438 19.31445312 10.58398438 19.31445312 9.16796875 16.62890625 C8.00980201 14.67732013 8.00980201 14.67732013 5 14 C5 16.64 5 19.28 5 22 C3.35 22 1.7 22 0 22 C0 14.74 0 7.48 0 0 Z " fill="#E9E9E9" transform="translate(242,374)"/>
<path d="M0 0 C11 0 11 0 14.1875 1 C16.25316422 3.27935363 16.35199285 4.01792998 16.5 7 C16.32680321 9.42031418 16.11107369 10.79745386 14.9375 12.9375 C12.06692435 14.51168665 9.2252528 14.69573087 6 15 C6 17.31 6 19.62 6 22 C4.02 22 2.04 22 0 22 C0 14.74 0 7.48 0 0 Z " fill="#DFDFDF" transform="translate(179,407)"/>
<path d="M0 0 C11.28 0 11.28 0 15 3 C16 4 16 4 16.375 6.75 C16 10 16 10 13.875 12.875 C10.56501812 15.32150834 9.01686987 15.46707789 5 15 C5 17.31 5 19.62 5 22 C3.35 22 1.7 22 0 22 C0 14.74 0 7.48 0 0 Z " fill="#E9E9E9" transform="translate(288,374)"/>
<path d="M0 0 C1.4540625 0.0309375 1.4540625 0.0309375 2.9375 0.0625 C3.11925781 0.619375 3.30101562 1.17625 3.48828125 1.75 C4.77288324 5.64991987 6.09733514 9.50061245 7.625 13.3125 C8.77154101 16.58833147 9.25646146 18.66024448 8.9375 22.0625 C7.2875 22.0625 5.6375 22.0625 3.9375 22.0625 C3.9375 20.4125 3.9375 18.7625 3.9375 17.0625 C1.2975 17.0625 -1.3425 17.0625 -4.0625 17.0625 C-4.3925 18.7125 -4.7225 20.3625 -5.0625 22.0625 C-6.3825 22.0625 -7.7025 22.0625 -9.0625 22.0625 C-8.45119449 17.10837829 -7.45705415 12.49666099 -6.0625 7.6875 C-5.711875 6.46289062 -5.36125 5.23828125 -5 3.9765625 C-3.74526698 0.07643402 -3.74526698 0.07643402 0 0 Z " fill="#E5E5E5" transform="translate(230.0625,373.9375)"/>
<path d="M0 0 C0.495 2.97 0.495 2.97 1 6 C0.06689751 5.51486435 0.06689751 5.51486435 -0.88505554 5.01992798 C-5.22819795 3.59785047 -9.295818 3.69174588 -13.83911133 3.68115234 C-14.82495209 3.67110672 -15.81079285 3.6610611 -16.82650757 3.65071106 C-20.07834298 3.61987127 -23.33009602 3.60284152 -26.58203125 3.5859375 C-28.83933725 3.56722652 -31.09663625 3.54765316 -33.35392761 3.5272522 C-39.29027176 3.47591778 -45.22663858 3.43629892 -51.16308594 3.39910889 C-57.22271338 3.35907756 -63.28224638 3.30798121 -69.34179688 3.2578125 C-81.22779824 3.16103763 -93.11385293 3.07663772 -105 3 C-105 5.64 -105 8.28 -105 11 C-105.33 11 -105.66 11 -106 11 C-106.33 7.7 -106.66 4.4 -107 1 C-94.37782879 0.86907106 -81.75565251 0.73864319 -69.13346958 0.60884857 C-63.27200125 0.54855916 -57.41053477 0.48809951 -51.54907227 0.42724609 C-45.88862959 0.368486 -40.2281824 0.31017925 -34.56773186 0.25218201 C-32.41207654 0.23001631 -30.25642287 0.20768943 -28.10077095 0.18519592 C-25.07312565 0.15363145 -22.0454749 0.12264887 -19.01782227 0.09179688 C-17.69179993 0.07777077 -17.69179993 0.07777077 -16.33898926 0.0634613 C-10.89235323 0.00870494 -5.44691588 -0.00806699 0 0 Z " fill="#F5F0F0" transform="translate(306,195)"/>
<path d="M0 0 C0.66 0.33 1.32 0.66 2 1 C-9.85975857 8.51438144 -22.07329222 15.43031448 -34.25195312 22.40942383 C-35.15880859 22.93431396 -36.06566406 23.4592041 -37 24 C-37.86807785 24.40150269 -38.7361557 24.80300537 -39.63053894 25.2166748 C-42.26447864 26.80175844 -42.26447864 26.80175844 -42.63923645 29.75248718 C-42.6492292 31.42127678 -42.6492292 31.42127678 -42.65942383 33.1237793 C-42.67906693 34.38486008 -42.69871002 35.64594086 -42.71894836 36.94523621 C-42.7155049 38.32156515 -42.71151977 39.69789282 -42.70703125 41.07421875 C-42.72014552 42.48242839 -42.73544892 43.8906192 -42.75285339 45.29878235 C-42.79274964 49.00275569 -42.80289665 52.70623752 -42.80688477 56.41040039 C-42.81620774 60.19107009 -42.85361582 63.97144995 -42.88867188 67.75195312 C-42.95329441 75.1679711 -42.98649594 82.58369412 -43 90 C-43.66 90 -44.32 90 -45 90 C-45 69.87 -45 49.74 -45 29 C-45.99 29.33 -46.98 29.66 -48 30 C-48.66 29.67 -49.32 29.34 -50 29 C-50 27.68 -50 26.36 -50 25 C-47 24 -47 24 -45.09155273 24.58276367 C-42.16448104 25.16667467 -41.04598679 24.22563432 -38.53515625 22.67578125 C-37.66213867 22.14678223 -36.78912109 21.6177832 -35.88964844 21.07275391 C-34.95668945 20.49187012 -34.02373047 19.91098633 -33.0625 19.3125 C-31.09058315 18.11726885 -29.11790602 16.92329128 -27.14453125 15.73046875 C-26.13342285 15.11478027 -25.12231445 14.4990918 -24.08056641 13.86474609 C-19.17075945 10.89271364 -14.21856762 7.99743284 -9.25 5.125 C-8.351604 4.59559814 -7.45320801 4.06619629 -6.52758789 3.52075195 C-5.69864014 3.04210693 -4.86969238 2.56346191 -4.015625 2.0703125 C-2.92169434 1.43246826 -2.92169434 1.43246826 -1.80566406 0.78173828 C-1.20979492 0.52376465 -0.61392578 0.26579102 0 0 Z " fill="#979797" transform="translate(355,176)"/>
<path d="M0 0 C4.62 0 9.24 0 14 0 C14 1.65 14 3.3 14 5 C11.03 5 8.06 5 5 5 C5 6.32 5 7.64 5 9 C7.31 9 9.62 9 12 9 C12 10.32 12 11.64 12 13 C9.69 13 7.38 13 5 13 C5 14.65 5 16.3 5 18 C7.97 18 10.94 18 14 18 C14 19.32 14 20.64 14 22 C9.38 22 4.76 22 0 22 C0 14.74 0 7.48 0 0 Z " fill="#E3E3E3" transform="translate(258,407)"/>
<path d="M0 0 C2.375 1 2.375 1 4 2 C3.67 2.99 3.34 3.98 3 5 C0.36 5 -2.28 5 -5 5 C-5 5.99 -5 6.98 -5 8 C-3.906875 8.28875 -2.81375 8.5775 -1.6875 8.875 C2 10 2 10 5 12 C5.5 14.875 5.5 14.875 5 18 C2.87691138 20.52116774 1.29744211 21.79806349 -2.0078125 22.3125 C-5.83792143 22.42556595 -7.77674476 22.14883682 -11 20 C-10.34 18.68 -9.68 17.36 -9 16 C-6.36 16.33 -3.72 16.66 -1 17 C-1 16.34 -1 15.68 -1 15 C-2.3921875 14.3503125 -2.3921875 14.3503125 -3.8125 13.6875 C-8.54545455 11.18181818 -8.54545455 11.18181818 -10 9 C-10.4375 6 -10.4375 6 -10 3 C-7.07298787 -0.37732169 -4.29796467 -0.44770465 0 0 Z " fill="#E3E3E3" transform="translate(128,374)"/>
<path d="M0 0 C4.29 0 8.58 0 13 0 C13 1.32 13 2.64 13 4 C10.03 4 7.06 4 4 4 C4 5.32 4 6.64 4 8 C6.64 8 9.28 8 12 8 C12 9.65 12 11.3 12 13 C9.36 13 6.72 13 4 13 C4 14.65 4 16.3 4 18 C6.97 18 9.94 18 13 18 C13 19.32 13 20.64 13 22 C8.71 22 4.42 22 0 22 C0 14.74 0 7.48 0 0 Z " fill="#EDEDED" transform="translate(263,374)"/>
<path d="M0 0 C4.62 0 9.24 0 14 0 C14 1.65 14 3.3 14 5 C11.03 5 8.06 5 5 5 C5 6.32 5 7.64 5 9 C7.31 9 9.62 9 12 9 C12 10.65 12 12.3 12 14 C9.69 14 7.38 14 5 14 C5 16.64 5 19.28 5 22 C3.35 22 1.7 22 0 22 C0 14.74 0 7.48 0 0 Z " fill="#DDDDDD" transform="translate(160,374)"/>
<path d="M0 0 C33.33 0 66.66 0 101 0 C101 0.33 101 0.66 101 1 C74.27 1 47.54 1 20 1 C20 2.65 20 4.3 20 6 C19.278125 5.814375 18.55625 5.62875 17.8125 5.4375 C14.87173027 4.98004693 12.85896942 5.26483643 10 6 C10 5.01 10 4.02 10 3 C9.34 3 8.68 3 8 3 C8 3.99 8 4.98 8 6 C6.68 6 5.36 6 4 6 C4 4.68 4 3.36 4 2 C3.01 1.67 2.02 1.34 1 1 C1 3.31 1 5.62 1 8 C0.67 8 0.34 8 0 8 C0 5.36 0 2.72 0 0 Z " fill="#595858" transform="translate(201,198)"/>
<path d="M0 0 C1.98 0 3.96 0 6 0 C6 5.94 6 11.88 6 18 C8.64 18 11.28 18 14 18 C14 19.32 14 20.64 14 22 C9.38 22 4.76 22 0 22 C0 14.74 0 7.48 0 0 Z " fill="#D6D6D6" transform="translate(307,374)"/>
<path d="M0 0 C5.61 0 11.22 0 17 0 C17 1.32 17 2.64 17 4 C15.02 4 13.04 4 11 4 C11 9.94 11 15.88 11 22 C9.35 22 7.7 22 6 22 C6 16.39 6 10.78 6 5 C4.02 5 2.04 5 0 5 C0 3.35 0 1.7 0 0 Z " fill="#E0E0E0" transform="translate(175,374)"/>
<path d="M0 0 C5.61 0 11.22 0 17 0 C17 1.32 17 2.64 17 4 C15.02 4 13.04 4 11 4 C11 9.94 11 15.88 11 22 C9.35 22 7.7 22 6 22 C6 16.06 6 10.12 6 4 C4.02 4 2.04 4 0 4 C0 2.68 0 1.36 0 0 Z " fill="#E9E9E9" transform="translate(355,374)"/>
<path d="M0 0 C0.66 0.66 1.32 1.32 2 2 C-1.9506161 4.26102293 -5.90163378 6.5213419 -9.85302734 8.78100586 C-11.19753945 9.55001743 -12.5419411 10.31922217 -13.88623047 11.08862305 C-15.81709332 12.19370359 -17.74835074 13.29809171 -19.6796875 14.40234375 C-20.28183075 14.74716293 -20.883974 15.09198212 -21.50436401 15.44725037 C-23.65120217 16.67405636 -25.78790029 17.89395014 -28 19 C-28 19.66 -28 20.32 -28 21 C-26.37946188 22.38903267 -24.70294787 23.71332828 -23 25 C-21.29705213 26.28667172 -19.62053812 27.61096733 -18 29 C-18 29.66 -18 30.32 -18 31 C-20.08203125 32.91015625 -20.08203125 32.91015625 -22.8125 35.0625 C-24.15248047 36.13177734 -24.15248047 36.13177734 -25.51953125 37.22265625 C-28 39 -28 39 -31 40 C-30.82374165 37.62051228 -30.30280227 36.29774151 -28.59765625 34.62109375 C-27.09350908 33.37884514 -25.54870149 32.18623944 -24 31 C-25.14717356 28.07992185 -26.042901 26.96833498 -28.625 25.0625 C-29.40875 24.381875 -30.1925 23.70125 -31 23 C-31.1484375 20.37109375 -31.1484375 20.37109375 -31 18 C-29.85144531 17.3709375 -28.70289063 16.741875 -27.51953125 16.09375 C-18.18963504 10.96059536 -9.00068969 5.69301574 0 0 Z " fill="#ADACAC" transform="translate(297,209)"/>
<path d="M0 0 C4.12222509 1.26665836 7.72940586 2.80496638 11.4765625 4.93359375 C12.476875 5.50013672 13.4771875 6.06667969 14.5078125 6.65039062 C15.53648437 7.24013672 16.56515625 7.82988281 17.625 8.4375 C18.66140625 9.02337891 19.6978125 9.60925781 20.765625 10.21289062 C25.01577476 12.63174201 29.14046255 14.98406807 33 18 C32.52794881 22.24846075 30.11122478 24.26819288 27 27 C26.34 27 25.68 27 25 27 C26.61999206 30.06945864 27.93794655 31.95093448 30.6875 34.125 C31.450625 34.74375 32.21375 35.3625 33 36 C33 36.99 33 37.98 33 39 C29.7173068 37.50923566 27.06922559 35.61379679 24.25 33.375 C23.45078125 32.74335938 22.6515625 32.11171875 21.828125 31.4609375 C21.22484375 30.97882813 20.6215625 30.49671875 20 30 C21.44781793 26.55571735 23.27694609 24.63869038 26.125 22.25 C26.84945312 21.63640625 27.57390625 21.0228125 28.3203125 20.390625 C28.87460938 19.93171875 29.42890625 19.4728125 30 19 C22.58347491 14.30286744 15.01833306 9.87707151 7.4296875 5.46484375 C6.47320312 4.90410156 5.51671875 4.34335938 4.53125 3.765625 C3.66048828 3.25805664 2.78972656 2.75048828 1.89257812 2.22753906 C1.26802734 1.82245117 0.64347656 1.41736328 0 1 C0 0.67 0 0.34 0 0 Z " fill="#ABA9A9" transform="translate(205,210)"/>
<path d="M0 0 C1.65 0 3.3 0 5 0 C5.1083667 2.7302389 5.18746694 5.45614543 5.25 8.1875 C5.30027344 9.34088867 5.30027344 9.34088867 5.3515625 10.51757812 C5.41966404 14.48449287 5.27804285 16.53011972 3.2109375 20.0234375 C1 22 1 22 -2.625 22.4375 C-6 22 -6 22 -8 20 C-8 19.01 -8 18.02 -8 17 C-5.69 17 -3.38 17 -1 17 C-0.67 11.39 -0.34 5.78 0 0 Z " fill="#E8E8E8" transform="translate(248,407)"/>
<path d="M0 0 C0.99 0 1.98 0 3 0 C2.49287967 3.71888239 1.88391785 6.73454239 0 10 C-0.66 10 -1.32 10 -2 10 C-2.08507812 10.66128906 -2.17015625 11.32257813 -2.2578125 12.00390625 C-3.24054363 15.97103666 -5.0017157 19.32185987 -6.875 22.9375 C-7.22691406 23.62779297 -7.57882813 24.31808594 -7.94140625 25.02929688 C-8.63148778 26.38252367 -9.323802 27.73461467 -10.01855469 29.08544922 C-11.36581924 31.71362051 -12.68419191 34.35597054 -14 37 C-14.99 37 -15.98 37 -17 37 C-16.37629252 32.39386217 -14.49373693 28.60059262 -12.40234375 24.51171875 C-12.04862198 23.80852005 -11.69490021 23.10532135 -11.33045959 22.3808136 C-10.20509922 20.14681651 -9.07144457 17.91715008 -7.9375 15.6875 C-7.1706718 14.16889848 -6.40438962 12.65002112 -5.63867188 11.13085938 C-3.76542351 7.41734829 -1.88472764 3.70769727 0 0 Z " fill="#CDC9C9" transform="translate(259,220)"/>
<path d="M0 0 C5.28 0 10.56 0 16 0 C16 0.99 16 1.98 16 3 C14.35 3.33 12.7 3.66 11 4 C10.67 9.61 10.34 15.22 10 21 C8.68 21 7.36 21 6 21 C6 15.06 6 9.12 6 3 C4.02 3 2.04 3 0 3 C0 2.01 0 1.02 0 0 Z " fill="#FCFCFC" transform="translate(294,408)"/>
<path d="M0 0 C1.98 0 3.96 0 6 0 C4.68 0.33 3.36 0.66 2 1 C3.87949705 4.57104439 5.17053157 6.54744301 9 8 C9 8.66 9 9.32 9 10 C25.5 10 42 10 59 10 C59 10.33 59 10.66 59 11 C57.73293213 11.02505615 56.46586426 11.0501123 55.16040039 11.07592773 C50.47702221 11.16981996 45.7937987 11.27008435 41.1105957 11.37231445 C39.08035896 11.41573241 37.05008408 11.45740226 35.01977539 11.49731445 C32.10811849 11.55485146 29.19665486 11.61859278 26.28515625 11.68359375 C24.91485008 11.70866249 24.91485008 11.70866249 23.51686096 11.73423767 C19.43210684 11.4230685 19.43210684 11.4230685 16 13 C6.8409135 14.35234834 6.8409135 14.35234834 3.16015625 11.6484375 C0.2973481 7.88114793 -0.58328549 4.78294101 0 0 Z " fill="#EAE5E5" transform="translate(192,266)"/>
<path d="M0 0 C1.65 0 3.3 0 5 0 C5 7.26 5 14.52 5 22 C3.35 22 1.7 22 0 22 C0 14.74 0 7.48 0 0 Z " fill="#DFDFDF" transform="translate(347,374)"/>
<path d="M0 0 C1.65 0 3.3 0 5 0 C5.66 4.95 6.32 9.9 7 15 C7.99 15 8.98 15 10 15 C10 17.31 10 19.62 10 22 C7.69 22 5.38 22 3 22 C2.49465273 19.27172635 1.99556155 16.54255306 1.5 13.8125 C1.35691406 13.04357422 1.21382812 12.27464844 1.06640625 11.48242188 C0.36761285 7.60578227 -0.19039017 3.958529 0 0 Z " fill="#EEEEEE" transform="translate(194,374)"/>
<path d="M0 0 C2.375 0.75 2.375 0.75 3.375 1.75 C3.54296875 3.7109375 3.54296875 3.7109375 3.5625 6.125 C3.57667969 6.91648437 3.59085938 7.70796875 3.60546875 8.5234375 C3.375 10.75 3.375 10.75 1.375 13.75 C-1 13.4375 -1 13.4375 -3.625 12.75 C-6.08824069 9.05513897 -6.01491688 7.11706908 -5.625 2.75 C-3.94255302 -0.08359492 -3.2944541 -0.31375753 0 0 Z " fill="#131313" transform="translate(146.625,378.25)"/>
<path d="M0 0 C2.5 0.25 2.5 0.25 4.5 2.25 C4.765625 4.34375 4.765625 4.34375 4.75 6.75 C4.75515625 7.5440625 4.7603125 8.338125 4.765625 9.15625 C4.5 11.25 4.5 11.25 2.5 13.25 C0 13.0625 0 13.0625 -2.5 12.25 C-4.94897847 8.57653229 -4.81537716 6.58643601 -4.5 2.25 C-2.5 0.25 -2.5 0.25 0 0 Z " fill="#0D0D0D" transform="translate(228.5,411.75)"/>
<path d="M0 0 C5.75 -0.125 5.75 -0.125 8 1 C8.05399736 2.45792884 8.09279177 3.91642712 8.125 5.375 C8.14820313 6.18710937 8.17140625 6.99921875 8.1953125 7.8359375 C8 10 8 10 6 12 C3.5 12.25 3.5 12.25 1 12 C-1 10 -1 10 -1.23046875 8.125 C-1.21628906 7.42375 -1.20210938 6.7225 -1.1875 6 C-1.18105469 5.29875 -1.17460937 4.5975 -1.16796875 3.875 C-1 2 -1 2 0 0 Z " fill="#0C0C0C" transform="translate(329,379)"/>
<path d="M0 0 C1.13917374 0.00666183 1.13917374 0.00666183 2.30136108 0.01345825 C3.59247299 0.01368484 3.59247299 0.01368484 4.90966797 0.01391602 C5.83991791 0.02423859 6.77016785 0.03456116 7.72860718 0.04519653 C8.68020721 0.04802643 9.63180725 0.05085632 10.61224365 0.05377197 C13.6589706 0.06498914 16.70540621 0.09009641 19.75204468 0.11550903 C21.81454044 0.12553685 23.8770408 0.13466304 25.93954468 0.14285278 C31.00215735 0.16493349 36.06455158 0.19947374 41.12704468 0.24050903 C41.12704468 0.57050903 41.12704468 0.90050903 41.12704468 1.24050903 C27.92704468 1.57050903 14.72704468 1.90050903 1.12704468 2.24050903 C4.09704468 3.89050903 7.06704468 5.54050903 10.12704468 7.24050903 C9.46704468 7.90050903 8.80704468 8.56050903 8.12704468 9.24050903 C4.16704468 6.93050903 0.20704468 4.62050903 -3.87295532 2.24050903 C-1.87295532 0.24050903 -1.87295532 0.24050903 0 0 Z " fill="#838282" transform="translate(209.87295532226563,277.7594909667969)"/>
<path d="M0 0 C0.99 0 1.98 0 3 0 C2.49287967 3.71888239 1.88391785 6.73454239 0 10 C-0.66 10 -1.32 10 -2 10 C-2.33 11.65 -2.66 13.3 -3 15 C-3.99 14.67 -4.98 14.34 -6 14 C-4.50829734 9.0276578 -2.39542583 4.58154261 0 0 Z " fill="#C4C1C1" transform="translate(259,220)"/>
<path d="M0 0 C2.375 -0.125 2.375 -0.125 5 0 C7 2 7 2 7 6 C4.69 6.33 2.38 6.66 0 7 C0 4.69 0 2.38 0 0 Z " fill="#2D2D2D" transform="translate(184,411)"/>
<path d="M0 0 C2.375 -0.125 2.375 -0.125 5 0 C5.66 0.66 6.32 1.32 7 2 C6.46428571 5.53571429 6.46428571 5.53571429 5 7 C3.33382885 7.04063832 1.66611905 7.042721 0 7 C0 4.69 0 2.38 0 0 Z " fill="#343434" transform="translate(204,411)"/>
<path d="M0 0 C2.375 -0.125 2.375 -0.125 5 0 C5.66 0.66 6.32 1.32 7 2 C6.46428571 5.53571429 6.46428571 5.53571429 5 7 C3.33382885 7.04063832 1.66611905 7.042721 0 7 C0 4.69 0 2.38 0 0 Z " fill="#2B2B2B" transform="translate(292,378)"/>
<path d="M0 0 C1.98 0 3.96 0 6 0 C4.68 0.33 3.36 0.66 2 1 C3.91135386 4.53600465 5.62642766 6.78972846 9 9 C7.35 9.66 5.7 10.32 4 11 C1.29727467 8.12835434 0.05208163 6.69008159 -0.25 2.6875 C-0.1675 1.800625 -0.085 0.91375 0 0 Z " fill="#D0CDCD" transform="translate(192,266)"/>
<path d="M0 0 C1.27310312 0.93441535 2.543388 1.87267111 3.8125 2.8125 C4.52019531 3.33457031 5.22789062 3.85664063 5.95703125 4.39453125 C7.78531393 5.83128877 9.39896688 7.31815763 11 9 C10.34 9 9.68 9 9 9 C9 10.32 9 11.64 9 13 C7 12 7 12 6.1875 10.1875 C5.06756864 7.76802755 5.06756864 7.76802755 2.375 6 C1.59125 5.34 0.8075 4.68 0 4 C0 2.68 0 1.36 0 0 Z " fill="#D1CDCD" transform="translate(266,228)"/>
<path d="M0 0 C1.65 0 3.3 0 5 0 C5.38218767 1.65614657 5.71395102 3.32457024 6 5 C5 6 5 6 2.4375 6.0625 C1.2309375 6.0315625 1.2309375 6.0315625 0 6 C0 4.02 0 2.04 0 0 Z " fill="#171717" transform="translate(247,378)"/>
<path d="M0 0 C3.3 0 6.6 0 10 0 C10 1.65 10 3.3 10 5 C9.21625 4.814375 8.4325 4.62875 7.625 4.4375 C5.02910225 3.74037734 5.02910225 3.74037734 3 5 C3 3.68 3 2.36 3 1 C2.01 0.67 1.02 0.34 0 0 Z " fill="#3D3C3C" transform="translate(211,199)"/>
<path d="M0 0 C0 1.32 0 2.64 0 4 C-0.99 4 -1.98 4 -3 4 C-3 3.01 -3 2.02 -3 1 C-3.66 1 -4.32 1 -5 1 C-5 1.99 -5 2.98 -5 4 C-6.32 4 -7.64 4 -9 4 C-9 2.68 -9 1.36 -9 0 C-5.67465243 -1.10844919 -3.37817425 -0.84454356 0 0 Z " fill="#716F6F" transform="translate(214,200)"/>
<path d="M0 0 C0.66 0.99 1.32 1.98 2 3 C1.25 5.625 1.25 5.625 0 8 C-0.99 8.495 -0.99 8.495 -2 9 C-2 8.34 -2 7.68 -2 7 C-3.32 6.34 -4.64 5.68 -6 5 C-5.195625 4.54625 -4.39125 4.0925 -3.5625 3.625 C-0.91143428 2.25274335 -0.91143428 2.25274335 0 0 Z " fill="#D1CECE" transform="translate(309,269)"/>
<path d="M0 0 C0.66 0 1.32 0 2 0 C2.33 2.64 2.66 5.28 3 8 C1.68 8 0.36 8 -1 8 C-0.67 5.36 -0.34 2.72 0 0 Z " fill="#3D3D3D" transform="translate(229,379)"/>
<path d="M0 0 C-0.55774272 3.23490776 -1.37211508 4.97855006 -4 7 C-4.99 7 -5.98 7 -7 7 C-3.86206897 0 -3.86206897 0 0 0 Z " fill="#D8D5D5" transform="translate(238,228)"/>
<path d="M0 0 C0.99 0.33 1.98 0.66 3 1 C2.195625 1.66 1.39125 2.32 0.5625 3 C-2.75148924 6.87979228 -2.74577025 9.00014825 -3 14 C-3.33 14 -3.66 14 -4 14 C-4.63019694 5.96498906 -4.63019694 5.96498906 -2 1.9375 C-1.34 1.298125 -0.68 0.65875 0 0 Z " fill="#B1B1B1" transform="translate(279,409)"/>
<path d="M0 0 C0.99 0.66 1.98 1.32 3 2 C2.67 2.66 2.34 3.32 2 4 C2.99 3.67 3.98 3.34 5 3 C5 3.66 5 4.32 5 5 C0.25 6.125 0.25 6.125 -2 5 C-2 3.68 -2 2.36 -2 1 C-1.34 0.67 -0.68 0.34 0 0 Z " fill="#777777" transform="translate(307,200)"/>
<path d="M0 0 C2.31 0 4.62 0 7 0 C7.33 1.98 7.66 3.96 8 6 C5.525 5.01 5.525 5.01 3 4 C3 3.01 3 2.02 3 1 C2.01 0.67 1.02 0.34 0 0 Z " fill="#B9B6B6" transform="translate(299,195)"/>
<path d="M0 0 C1.32 0.66 2.64 1.32 4 2 C3.01 2.33 2.02 2.66 1 3 C0.67 3.99 0.34 4.98 0 6 C-0.99 6 -1.98 6 -3 6 C-3 3 -3 3 -1.5 1.3125 C-0.7575 0.6628125 -0.7575 0.6628125 0 0 Z " fill="#CBC7C7" transform="translate(229,234)"/>
<path d="M0 0 C0.99 0.33 1.98 0.66 3 1 C2.0409375 1.7425 2.0409375 1.7425 1.0625 2.5 C-1.81515269 5.98806387 -1.70230736 8.53461041 -2 13 C-2.33 13 -2.66 13 -3 13 C-3.4726477 4.80743982 -3.4726477 4.80743982 -1.5 1.4375 C-0.7575 0.7259375 -0.7575 0.7259375 0 0 Z " fill="#C2C2C2" transform="translate(222,409)"/>
<path d="M0 0 C2.31 0 4.62 0 7 0 C7 1.98 7 3.96 7 6 C6.34 6 5.68 6 5 6 C4.67 4.35 4.34 2.7 4 1 C2.68 0.67 1.36 0.34 0 0 Z " fill="#EEE9E9" transform="translate(305,266)"/>
<path d="M0 0 C0.66 0.33 1.32 0.66 2 1 C-0.625 5.875 -0.625 5.875 -4 7 C-3.43628586 3.73045798 -2.50037734 2.17424117 0 0 Z " fill="#CCC8C8" transform="translate(270,242)"/>
<path d="M0 0 C1.11375 0.3403125 1.11375 0.3403125 2.25 0.6875 C2.25 1.3475 2.25 2.0075 2.25 2.6875 C-0.72 2.6875 -3.69 2.6875 -6.75 2.6875 C-4.29511132 0.41445492 -3.41240272 -0.38777304 0 0 Z " fill="#F9F5F5" transform="translate(304.75,275.3125)"/>
</svg>
